<mxfile host="app.diagrams.net" agent="Mozilla/5.0 (Windows NT 10.0; Win64; x64) AppleWebKit/537.36 (KHTML, like Gecko) Chrome/131.0.0.0 Safari/537.36" version="24.8.6">
  <diagram name="Сторінка-1" id="jraURbn6yLSYXRawfBOK">
    <mxGraphModel dx="1050" dy="530" grid="1" gridSize="10" guides="1" tooltips="1" connect="1" arrows="1" fold="1" page="1" pageScale="1" pageWidth="827" pageHeight="1169" math="0" shadow="0">
      <root>
        <mxCell id="0" />
        <mxCell id="1" parent="0" />
        <mxCell id="LpUBaSObcokxoR3XLA_E-1" value="&lt;font style=&quot;font-size: 14px;&quot;&gt;End&lt;/font&gt;" style="ellipse;whiteSpace=wrap;html=1;" vertex="1" parent="1">
          <mxGeometry x="354" y="1050" width="120" height="50" as="geometry" />
        </mxCell>
        <mxCell id="LpUBaSObcokxoR3XLA_E-2" style="edgeStyle=orthogonalEdgeStyle;rounded=0;orthogonalLoop=1;jettySize=auto;html=1;exitX=0.5;exitY=1;exitDx=0;exitDy=0;entryX=0.5;entryY=0;entryDx=0;entryDy=0;" edge="1" parent="1" source="LpUBaSObcokxoR3XLA_E-3" target="LpUBaSObcokxoR3XLA_E-5">
          <mxGeometry relative="1" as="geometry">
            <mxPoint x="414" y="130" as="targetPoint" />
          </mxGeometry>
        </mxCell>
        <mxCell id="LpUBaSObcokxoR3XLA_E-3" value="&lt;font style=&quot;font-size: 14px;&quot;&gt;Start&lt;/font&gt;" style="ellipse;whiteSpace=wrap;html=1;" vertex="1" parent="1">
          <mxGeometry x="354" y="40" width="120" height="50" as="geometry" />
        </mxCell>
        <mxCell id="LpUBaSObcokxoR3XLA_E-4" style="edgeStyle=orthogonalEdgeStyle;rounded=0;orthogonalLoop=1;jettySize=auto;html=1;exitX=0.5;exitY=1;exitDx=0;exitDy=0;entryX=0.5;entryY=0;entryDx=0;entryDy=0;" edge="1" parent="1" source="LpUBaSObcokxoR3XLA_E-5" target="LpUBaSObcokxoR3XLA_E-7">
          <mxGeometry relative="1" as="geometry" />
        </mxCell>
        <mxCell id="LpUBaSObcokxoR3XLA_E-5" value="&lt;span style=&quot;font-size: 14px;&quot;&gt;string weekd[7],&amp;nbsp;&lt;/span&gt;&lt;div&gt;&lt;span style=&quot;font-size: 14px;&quot;&gt;string d, int n, int today = 0, i=0,&amp;nbsp;&lt;/span&gt;&lt;div&gt;&lt;span style=&quot;font-size: 14px;&quot;&gt;countDays[7]&lt;/span&gt;&lt;/div&gt;&lt;/div&gt;" style="shape=parallelogram;perimeter=parallelogramPerimeter;whiteSpace=wrap;html=1;fixedSize=1;" vertex="1" parent="1">
          <mxGeometry x="313" y="120" width="201" height="90" as="geometry" />
        </mxCell>
        <mxCell id="LpUBaSObcokxoR3XLA_E-6" style="edgeStyle=orthogonalEdgeStyle;rounded=0;orthogonalLoop=1;jettySize=auto;html=1;exitX=0.5;exitY=1;exitDx=0;exitDy=0;entryX=0.5;entryY=0;entryDx=0;entryDy=0;" edge="1" parent="1" source="LpUBaSObcokxoR3XLA_E-7" target="LpUBaSObcokxoR3XLA_E-28">
          <mxGeometry relative="1" as="geometry">
            <mxPoint x="414" y="350" as="targetPoint" />
          </mxGeometry>
        </mxCell>
        <mxCell id="LpUBaSObcokxoR3XLA_E-7" value="&lt;span style=&quot;font-size: 14px;&quot;&gt;input d, n&lt;/span&gt;" style="shape=parallelogram;perimeter=parallelogramPerimeter;whiteSpace=wrap;html=1;fixedSize=1;" vertex="1" parent="1">
          <mxGeometry x="354" y="250" width="120" height="60" as="geometry" />
        </mxCell>
        <mxCell id="LpUBaSObcokxoR3XLA_E-30" style="edgeStyle=orthogonalEdgeStyle;rounded=0;orthogonalLoop=1;jettySize=auto;html=1;exitX=0.5;exitY=1;exitDx=0;exitDy=0;entryX=0.5;entryY=0;entryDx=0;entryDy=0;" edge="1" parent="1" source="LpUBaSObcokxoR3XLA_E-28" target="LpUBaSObcokxoR3XLA_E-29">
          <mxGeometry relative="1" as="geometry" />
        </mxCell>
        <mxCell id="LpUBaSObcokxoR3XLA_E-42" value="Yes" style="edgeLabel;html=1;align=center;verticalAlign=middle;resizable=0;points=[];" vertex="1" connectable="0" parent="LpUBaSObcokxoR3XLA_E-30">
          <mxGeometry x="-0.26" relative="1" as="geometry">
            <mxPoint as="offset" />
          </mxGeometry>
        </mxCell>
        <mxCell id="LpUBaSObcokxoR3XLA_E-39" style="edgeStyle=orthogonalEdgeStyle;rounded=0;orthogonalLoop=1;jettySize=auto;html=1;exitX=0;exitY=0.5;exitDx=0;exitDy=0;entryX=0;entryY=0.5;entryDx=0;entryDy=0;" edge="1" parent="1" source="LpUBaSObcokxoR3XLA_E-28" target="LpUBaSObcokxoR3XLA_E-43">
          <mxGeometry relative="1" as="geometry">
            <mxPoint x="190" y="630" as="targetPoint" />
            <Array as="points">
              <mxPoint x="190" y="400" />
              <mxPoint x="190" y="630" />
            </Array>
          </mxGeometry>
        </mxCell>
        <mxCell id="LpUBaSObcokxoR3XLA_E-41" value="No" style="edgeLabel;html=1;align=center;verticalAlign=middle;resizable=0;points=[];" vertex="1" connectable="0" parent="LpUBaSObcokxoR3XLA_E-39">
          <mxGeometry x="-0.8309" y="-2" relative="1" as="geometry">
            <mxPoint as="offset" />
          </mxGeometry>
        </mxCell>
        <mxCell id="LpUBaSObcokxoR3XLA_E-28" value="&lt;font style=&quot;font-size: 14px;&quot;&gt;i&amp;lt;7&lt;/font&gt;" style="rhombus;whiteSpace=wrap;html=1;" vertex="1" parent="1">
          <mxGeometry x="374" y="360" width="80" height="80" as="geometry" />
        </mxCell>
        <mxCell id="LpUBaSObcokxoR3XLA_E-32" style="edgeStyle=orthogonalEdgeStyle;rounded=0;orthogonalLoop=1;jettySize=auto;html=1;exitX=0;exitY=0.5;exitDx=0;exitDy=0;entryX=1;entryY=0.5;entryDx=0;entryDy=0;" edge="1" parent="1" source="LpUBaSObcokxoR3XLA_E-29" target="LpUBaSObcokxoR3XLA_E-31">
          <mxGeometry relative="1" as="geometry" />
        </mxCell>
        <mxCell id="LpUBaSObcokxoR3XLA_E-38" value="Yes" style="edgeLabel;html=1;align=center;verticalAlign=middle;resizable=0;points=[];" vertex="1" connectable="0" parent="LpUBaSObcokxoR3XLA_E-32">
          <mxGeometry x="0.0545" y="1" relative="1" as="geometry">
            <mxPoint as="offset" />
          </mxGeometry>
        </mxCell>
        <mxCell id="LpUBaSObcokxoR3XLA_E-34" style="edgeStyle=orthogonalEdgeStyle;rounded=0;orthogonalLoop=1;jettySize=auto;html=1;exitX=1;exitY=0.5;exitDx=0;exitDy=0;entryX=0;entryY=0.5;entryDx=0;entryDy=0;" edge="1" parent="1" source="LpUBaSObcokxoR3XLA_E-29" target="LpUBaSObcokxoR3XLA_E-33">
          <mxGeometry relative="1" as="geometry" />
        </mxCell>
        <mxCell id="LpUBaSObcokxoR3XLA_E-37" value="No" style="edgeLabel;html=1;align=center;verticalAlign=middle;resizable=0;points=[];" vertex="1" connectable="0" parent="LpUBaSObcokxoR3XLA_E-34">
          <mxGeometry x="-0.3286" y="-1" relative="1" as="geometry">
            <mxPoint as="offset" />
          </mxGeometry>
        </mxCell>
        <mxCell id="LpUBaSObcokxoR3XLA_E-29" value="&lt;font style=&quot;font-size: 14px;&quot;&gt;weekd[i]==d&lt;/font&gt;" style="rhombus;whiteSpace=wrap;html=1;" vertex="1" parent="1">
          <mxGeometry x="364" y="480" width="100" height="100" as="geometry" />
        </mxCell>
        <mxCell id="LpUBaSObcokxoR3XLA_E-40" style="edgeStyle=orthogonalEdgeStyle;rounded=0;orthogonalLoop=1;jettySize=auto;html=1;exitX=0;exitY=0.5;exitDx=0;exitDy=0;" edge="1" parent="1" source="LpUBaSObcokxoR3XLA_E-31">
          <mxGeometry relative="1" as="geometry">
            <mxPoint x="190" y="530" as="targetPoint" />
          </mxGeometry>
        </mxCell>
        <mxCell id="LpUBaSObcokxoR3XLA_E-31" value="&lt;font style=&quot;font-size: 14px;&quot;&gt;today = i&lt;/font&gt;" style="rounded=1;whiteSpace=wrap;html=1;" vertex="1" parent="1">
          <mxGeometry x="220" y="505" width="100" height="50" as="geometry" />
        </mxCell>
        <mxCell id="LpUBaSObcokxoR3XLA_E-35" style="edgeStyle=orthogonalEdgeStyle;rounded=0;orthogonalLoop=1;jettySize=auto;html=1;exitX=0.5;exitY=0;exitDx=0;exitDy=0;" edge="1" parent="1" source="LpUBaSObcokxoR3XLA_E-33">
          <mxGeometry relative="1" as="geometry">
            <mxPoint x="410" y="320" as="targetPoint" />
            <Array as="points">
              <mxPoint x="570" y="320" />
            </Array>
          </mxGeometry>
        </mxCell>
        <mxCell id="LpUBaSObcokxoR3XLA_E-33" value="&lt;font style=&quot;font-size: 14px;&quot;&gt;i++&lt;/font&gt;" style="rounded=1;whiteSpace=wrap;html=1;" vertex="1" parent="1">
          <mxGeometry x="520" y="505" width="100" height="50" as="geometry" />
        </mxCell>
        <mxCell id="LpUBaSObcokxoR3XLA_E-45" style="edgeStyle=orthogonalEdgeStyle;rounded=0;orthogonalLoop=1;jettySize=auto;html=1;exitX=0.5;exitY=1;exitDx=0;exitDy=0;entryX=0.5;entryY=0;entryDx=0;entryDy=0;" edge="1" parent="1" source="LpUBaSObcokxoR3XLA_E-43" target="LpUBaSObcokxoR3XLA_E-44">
          <mxGeometry relative="1" as="geometry" />
        </mxCell>
        <mxCell id="LpUBaSObcokxoR3XLA_E-43" value="&lt;font style=&quot;font-size: 14px;&quot;&gt;povnyh=n/7&lt;/font&gt;&lt;div style=&quot;font-size: 14px;&quot;&gt;&lt;font style=&quot;font-size: 14px;&quot;&gt;nep=n%7&lt;/font&gt;&lt;/div&gt;&lt;div style=&quot;font-size: 14px;&quot;&gt;&lt;font style=&quot;font-size: 14px;&quot;&gt;i=0&lt;/font&gt;&lt;/div&gt;" style="rounded=1;whiteSpace=wrap;html=1;" vertex="1" parent="1">
          <mxGeometry x="354" y="600" width="120" height="60" as="geometry" />
        </mxCell>
        <mxCell id="LpUBaSObcokxoR3XLA_E-47" style="edgeStyle=orthogonalEdgeStyle;rounded=0;orthogonalLoop=1;jettySize=auto;html=1;exitX=1;exitY=0.5;exitDx=0;exitDy=0;entryX=0;entryY=0.5;entryDx=0;entryDy=0;" edge="1" parent="1" source="LpUBaSObcokxoR3XLA_E-44" target="LpUBaSObcokxoR3XLA_E-46">
          <mxGeometry relative="1" as="geometry" />
        </mxCell>
        <mxCell id="LpUBaSObcokxoR3XLA_E-53" value="Yes" style="edgeLabel;html=1;align=center;verticalAlign=middle;resizable=0;points=[];" vertex="1" connectable="0" parent="LpUBaSObcokxoR3XLA_E-47">
          <mxGeometry x="-0.2696" y="2" relative="1" as="geometry">
            <mxPoint as="offset" />
          </mxGeometry>
        </mxCell>
        <mxCell id="LpUBaSObcokxoR3XLA_E-61" style="edgeStyle=orthogonalEdgeStyle;rounded=0;orthogonalLoop=1;jettySize=auto;html=1;exitX=0;exitY=0.5;exitDx=0;exitDy=0;entryX=1;entryY=0.5;entryDx=0;entryDy=0;" edge="1" parent="1" source="LpUBaSObcokxoR3XLA_E-44" target="LpUBaSObcokxoR3XLA_E-60">
          <mxGeometry relative="1" as="geometry" />
        </mxCell>
        <mxCell id="LpUBaSObcokxoR3XLA_E-62" value="No" style="edgeLabel;html=1;align=center;verticalAlign=middle;resizable=0;points=[];" vertex="1" connectable="0" parent="LpUBaSObcokxoR3XLA_E-61">
          <mxGeometry x="-0.141" y="1" relative="1" as="geometry">
            <mxPoint as="offset" />
          </mxGeometry>
        </mxCell>
        <mxCell id="LpUBaSObcokxoR3XLA_E-44" value="&lt;font style=&quot;font-size: 14px;&quot;&gt;i&amp;lt;7&lt;/font&gt;" style="rhombus;whiteSpace=wrap;html=1;" vertex="1" parent="1">
          <mxGeometry x="374" y="690" width="80" height="80" as="geometry" />
        </mxCell>
        <mxCell id="LpUBaSObcokxoR3XLA_E-50" value="" style="edgeStyle=orthogonalEdgeStyle;rounded=0;orthogonalLoop=1;jettySize=auto;html=1;" edge="1" parent="1" source="LpUBaSObcokxoR3XLA_E-46" target="LpUBaSObcokxoR3XLA_E-48">
          <mxGeometry relative="1" as="geometry" />
        </mxCell>
        <mxCell id="LpUBaSObcokxoR3XLA_E-46" value="&lt;font style=&quot;font-size: 14px;&quot;&gt;countDays[i]=povnyh&lt;/font&gt;" style="rounded=1;whiteSpace=wrap;html=1;" vertex="1" parent="1">
          <mxGeometry x="500" y="700" width="140" height="60" as="geometry" />
        </mxCell>
        <mxCell id="LpUBaSObcokxoR3XLA_E-52" style="edgeStyle=orthogonalEdgeStyle;rounded=0;orthogonalLoop=1;jettySize=auto;html=1;exitX=0.5;exitY=0;exitDx=0;exitDy=0;" edge="1" parent="1" source="LpUBaSObcokxoR3XLA_E-48">
          <mxGeometry relative="1" as="geometry">
            <mxPoint x="410" y="670" as="targetPoint" />
            <Array as="points">
              <mxPoint x="740" y="670" />
            </Array>
          </mxGeometry>
        </mxCell>
        <mxCell id="LpUBaSObcokxoR3XLA_E-48" value="&lt;font style=&quot;font-size: 14px;&quot;&gt;i++&lt;/font&gt;" style="rounded=1;whiteSpace=wrap;html=1;" vertex="1" parent="1">
          <mxGeometry x="690" y="705" width="100" height="50" as="geometry" />
        </mxCell>
        <mxCell id="LpUBaSObcokxoR3XLA_E-54" style="edgeStyle=orthogonalEdgeStyle;rounded=0;orthogonalLoop=1;jettySize=auto;html=1;exitX=1;exitY=0.5;exitDx=0;exitDy=0;entryX=0;entryY=0.5;entryDx=0;entryDy=0;" edge="1" parent="1" source="LpUBaSObcokxoR3XLA_E-56" target="LpUBaSObcokxoR3XLA_E-58">
          <mxGeometry relative="1" as="geometry" />
        </mxCell>
        <mxCell id="LpUBaSObcokxoR3XLA_E-55" value="Yes" style="edgeLabel;html=1;align=center;verticalAlign=middle;resizable=0;points=[];" vertex="1" connectable="0" parent="LpUBaSObcokxoR3XLA_E-54">
          <mxGeometry x="-0.2696" y="2" relative="1" as="geometry">
            <mxPoint as="offset" />
          </mxGeometry>
        </mxCell>
        <mxCell id="LpUBaSObcokxoR3XLA_E-79" style="edgeStyle=orthogonalEdgeStyle;rounded=0;orthogonalLoop=1;jettySize=auto;html=1;exitX=0;exitY=0.5;exitDx=0;exitDy=0;entryX=1;entryY=0.5;entryDx=0;entryDy=0;" edge="1" parent="1" source="LpUBaSObcokxoR3XLA_E-56" target="LpUBaSObcokxoR3XLA_E-78">
          <mxGeometry relative="1" as="geometry" />
        </mxCell>
        <mxCell id="LpUBaSObcokxoR3XLA_E-81" value="No" style="edgeLabel;html=1;align=center;verticalAlign=middle;resizable=0;points=[];" vertex="1" connectable="0" parent="LpUBaSObcokxoR3XLA_E-79">
          <mxGeometry x="-0.1082" relative="1" as="geometry">
            <mxPoint as="offset" />
          </mxGeometry>
        </mxCell>
        <mxCell id="LpUBaSObcokxoR3XLA_E-56" value="&lt;font style=&quot;font-size: 14px;&quot;&gt;i&amp;lt;nep&lt;/font&gt;" style="rhombus;whiteSpace=wrap;html=1;" vertex="1" parent="1">
          <mxGeometry x="374" y="810" width="80" height="80" as="geometry" />
        </mxCell>
        <mxCell id="LpUBaSObcokxoR3XLA_E-57" value="" style="edgeStyle=orthogonalEdgeStyle;rounded=0;orthogonalLoop=1;jettySize=auto;html=1;" edge="1" parent="1" source="LpUBaSObcokxoR3XLA_E-58" target="LpUBaSObcokxoR3XLA_E-59">
          <mxGeometry relative="1" as="geometry" />
        </mxCell>
        <mxCell id="LpUBaSObcokxoR3XLA_E-58" value="&lt;font style=&quot;font-size: 14px;&quot;&gt;countDays[(today+i)%7]++&lt;/font&gt;" style="rounded=1;whiteSpace=wrap;html=1;" vertex="1" parent="1">
          <mxGeometry x="500" y="820" width="170" height="60" as="geometry" />
        </mxCell>
        <mxCell id="LpUBaSObcokxoR3XLA_E-64" style="edgeStyle=orthogonalEdgeStyle;rounded=0;orthogonalLoop=1;jettySize=auto;html=1;exitX=0.5;exitY=0;exitDx=0;exitDy=0;" edge="1" parent="1" source="LpUBaSObcokxoR3XLA_E-59">
          <mxGeometry relative="1" as="geometry">
            <mxPoint x="410" y="790" as="targetPoint" />
            <Array as="points">
              <mxPoint x="740" y="790" />
            </Array>
          </mxGeometry>
        </mxCell>
        <mxCell id="LpUBaSObcokxoR3XLA_E-59" value="&lt;font style=&quot;font-size: 14px;&quot;&gt;i++&lt;/font&gt;" style="rounded=1;whiteSpace=wrap;html=1;" vertex="1" parent="1">
          <mxGeometry x="690" y="825" width="100" height="50" as="geometry" />
        </mxCell>
        <mxCell id="LpUBaSObcokxoR3XLA_E-63" style="edgeStyle=orthogonalEdgeStyle;rounded=0;orthogonalLoop=1;jettySize=auto;html=1;exitX=0.5;exitY=1;exitDx=0;exitDy=0;entryX=0.5;entryY=0;entryDx=0;entryDy=0;" edge="1" parent="1" source="LpUBaSObcokxoR3XLA_E-60" target="LpUBaSObcokxoR3XLA_E-56">
          <mxGeometry relative="1" as="geometry" />
        </mxCell>
        <mxCell id="LpUBaSObcokxoR3XLA_E-60" value="&lt;span style=&quot;font-size: 14px;&quot;&gt;i=0&lt;/span&gt;" style="rounded=1;whiteSpace=wrap;html=1;" vertex="1" parent="1">
          <mxGeometry x="193" y="700" width="120" height="60" as="geometry" />
        </mxCell>
        <mxCell id="LpUBaSObcokxoR3XLA_E-65" style="edgeStyle=orthogonalEdgeStyle;rounded=0;orthogonalLoop=1;jettySize=auto;html=1;exitX=1;exitY=0.5;exitDx=0;exitDy=0;entryX=0;entryY=0.5;entryDx=0;entryDy=0;" edge="1" parent="1" source="LpUBaSObcokxoR3XLA_E-69" target="LpUBaSObcokxoR3XLA_E-71">
          <mxGeometry relative="1" as="geometry" />
        </mxCell>
        <mxCell id="LpUBaSObcokxoR3XLA_E-66" value="Yes" style="edgeLabel;html=1;align=center;verticalAlign=middle;resizable=0;points=[];" vertex="1" connectable="0" parent="LpUBaSObcokxoR3XLA_E-65">
          <mxGeometry x="-0.2696" y="2" relative="1" as="geometry">
            <mxPoint as="offset" />
          </mxGeometry>
        </mxCell>
        <mxCell id="LpUBaSObcokxoR3XLA_E-76" style="edgeStyle=orthogonalEdgeStyle;rounded=0;orthogonalLoop=1;jettySize=auto;html=1;exitX=0;exitY=0.5;exitDx=0;exitDy=0;entryX=0;entryY=0.5;entryDx=0;entryDy=0;" edge="1" parent="1" source="LpUBaSObcokxoR3XLA_E-69" target="LpUBaSObcokxoR3XLA_E-1">
          <mxGeometry relative="1" as="geometry">
            <Array as="points">
              <mxPoint x="310" y="960" />
              <mxPoint x="310" y="1075" />
            </Array>
          </mxGeometry>
        </mxCell>
        <mxCell id="LpUBaSObcokxoR3XLA_E-77" value="No" style="edgeLabel;html=1;align=center;verticalAlign=middle;resizable=0;points=[];" vertex="1" connectable="0" parent="LpUBaSObcokxoR3XLA_E-76">
          <mxGeometry x="-0.7202" y="1" relative="1" as="geometry">
            <mxPoint as="offset" />
          </mxGeometry>
        </mxCell>
        <mxCell id="LpUBaSObcokxoR3XLA_E-69" value="&lt;font style=&quot;font-size: 14px;&quot;&gt;i&amp;lt;7&lt;/font&gt;" style="rhombus;whiteSpace=wrap;html=1;" vertex="1" parent="1">
          <mxGeometry x="374" y="920" width="80" height="80" as="geometry" />
        </mxCell>
        <mxCell id="LpUBaSObcokxoR3XLA_E-70" value="" style="edgeStyle=orthogonalEdgeStyle;rounded=0;orthogonalLoop=1;jettySize=auto;html=1;" edge="1" parent="1" source="LpUBaSObcokxoR3XLA_E-71" target="LpUBaSObcokxoR3XLA_E-72">
          <mxGeometry relative="1" as="geometry" />
        </mxCell>
        <mxCell id="LpUBaSObcokxoR3XLA_E-71" value="&lt;font style=&quot;font-size: 14px;&quot;&gt;countDays[i]&lt;/font&gt;" style="rounded=1;whiteSpace=wrap;html=1;" vertex="1" parent="1">
          <mxGeometry x="500" y="930" width="140" height="60" as="geometry" />
        </mxCell>
        <mxCell id="LpUBaSObcokxoR3XLA_E-82" style="edgeStyle=orthogonalEdgeStyle;rounded=0;orthogonalLoop=1;jettySize=auto;html=1;exitX=0.5;exitY=0;exitDx=0;exitDy=0;" edge="1" parent="1" source="LpUBaSObcokxoR3XLA_E-72">
          <mxGeometry relative="1" as="geometry">
            <mxPoint x="410" y="900" as="targetPoint" />
            <Array as="points">
              <mxPoint x="740" y="900" />
            </Array>
          </mxGeometry>
        </mxCell>
        <mxCell id="LpUBaSObcokxoR3XLA_E-72" value="&lt;font style=&quot;font-size: 14px;&quot;&gt;i++&lt;/font&gt;" style="rounded=1;whiteSpace=wrap;html=1;" vertex="1" parent="1">
          <mxGeometry x="690" y="935" width="100" height="50" as="geometry" />
        </mxCell>
        <mxCell id="LpUBaSObcokxoR3XLA_E-80" style="edgeStyle=orthogonalEdgeStyle;rounded=0;orthogonalLoop=1;jettySize=auto;html=1;exitX=0.5;exitY=1;exitDx=0;exitDy=0;entryX=0.5;entryY=0;entryDx=0;entryDy=0;" edge="1" parent="1" source="LpUBaSObcokxoR3XLA_E-78" target="LpUBaSObcokxoR3XLA_E-69">
          <mxGeometry relative="1" as="geometry" />
        </mxCell>
        <mxCell id="LpUBaSObcokxoR3XLA_E-78" value="&lt;span style=&quot;font-size: 14px;&quot;&gt;i=0&lt;/span&gt;" style="rounded=1;whiteSpace=wrap;html=1;" vertex="1" parent="1">
          <mxGeometry x="193" y="820" width="120" height="60" as="geometry" />
        </mxCell>
      </root>
    </mxGraphModel>
  </diagram>
</mxfile>
